Coordinates
version=1
nRows=14
nColumns=33
inDegrees=yes

Units are S.I. units (second, meters, Newtons, ...)
Angles are in degrees.

endheader
time	ground_thorax_rot_x	ground_thorax_rot_y	ground_thorax_rot_z	ground_thorax_tx	ground_thorax_ty	ground_thorax_tz	clav_prot_r	clav_elev_r	scapula_abduction_r	scapula_elevation_r	scapula_upward_rot_r	scapula_winging_r	shoulder_elv_r	plane_of_elev_r	axial_rot_r	elbow_flexion_r	pro_sup_r	wrist_flex_r	wrist_dev_r	clav_prot_l	clav_elev_l	scapula_abduction_l	scapula_elevation_l	scapula_upward_rot_l	scapula_winging_l	shoulder_elv_l	plane_of_elev_l	axial_rot_l	elbow_flexion_l	pro_sup_l	wrist_flex_l	wrist_dev_l
      1.71000000	     -6.02418754	      4.68315589	      9.41242295	     -0.09784732	      1.02804459	      0.00078074	     16.39003022	    -11.08648021	     44.65742784	    -12.75418393	     27.61026047	    -13.62038261	     -2.53345671	    -52.69329554	    121.45822722	    -31.21106923	   -135.90968270	      1.21063853	      1.18338388	     26.78249650	    -11.48451660	    -40.42323025	     -4.57557968	    -22.97688082	     14.28479651	     59.94496858	      4.51178878	     16.96058995	     11.41479437	     24.77033511	     15.44164739	     -4.98647558
      1.72000000	     -6.02260092	      4.68515589	      9.41276221	     -0.09755848	      1.02817146	      0.00076510	     16.39092185	    -11.08582850	     44.65909309	    -12.75396040	     27.61054896	    -13.62068433	     -2.53380743	    -52.69307327	    121.45868271	    -31.21091184	   -135.91022024	      1.21079424	      1.18332098	     26.78247728	    -11.48341193	    -40.42289828	     -4.57657794	    -22.97760424	     14.28551844	     59.94508995	      4.51042853	     16.96052474	     11.41421882	     24.76997636	     15.44140464	     -4.98649377
      1.73000000	     -5.99906749	      4.70590677	      9.36710670	     -0.09714493	      1.02838023	      0.00088643	     16.39782215	    -11.07841700	     44.65694565	    -12.74225442	     27.59146046	    -13.62982415	     -2.54152222	    -52.71833880	    121.45758114	    -31.19622958	   -135.91461267	      1.20988236	      1.18354794	     26.77788192	    -11.46322694	    -40.41812388	     -4.60452743	    -22.99954562	     14.28938325	     59.94154974	      4.47270823	     16.96137522	     11.40151215	     24.76695635	     15.43995917	     -4.98618407
      1.74000000	     -5.96588159	      4.71424668	      9.33009320	     -0.09694861	      1.02847743	      0.00094374	     16.40058373	    -11.05716490	     44.64333587	    -12.71863832	     27.56493687	    -13.63924632	     -2.53608137	    -52.77281436	    121.44547173	    -31.17799183	   -135.92219104	      1.20785836	      1.18273103	     26.77280722	    -11.42344304	    -40.41367449	     -4.64133224	    -23.00816811	     14.29609457	     59.95896718	      4.43137092	     16.96111064	     11.39816488	     24.75984752	     15.43739754	     -4.98845282
      1.75000000	     -5.55537626	      4.64006641	      9.24718712	     -0.09625020	      1.02730322	      0.00137574	     16.43576423	     -9.89759249	     45.00000000	    -11.82285432	     27.91057002	    -14.44296852	     -2.98275596	    -52.70073403	    121.51525097	    -31.08520932	   -138.88413441	      1.86484284	      0.97601074	     26.28638374	    -11.21841441	    -39.67177183	     -4.68519971	    -22.67017988	     13.89808670	     59.40016339	      4.20724114	     16.01860352	     11.67308804	     22.07848566	     15.23458178	     -5.76118870
      1.76000000	     -5.51505883	      4.64671995	      9.21084035	     -0.09634631	      1.02729101	      0.00147477	     16.43913007	     -9.88180585	     44.98105829	    -11.80105473	     27.87493725	    -14.44911239	     -2.96815662	    -52.77763334	    121.49747316	    -31.06363439	   -138.88845673	      1.85995510	      0.97158054	     26.27947347	    -11.16822964	    -39.66558449	     -4.73228563	    -22.68094257	     13.90807617	     59.43071187	      4.15045613	     16.01980210	     11.66965317	     22.07344410	     15.23162280	     -5.75966397
      1.77000000	     -5.56655983	      4.37676899	      9.23756772	     -0.09616681	      1.02757132	      0.00110964	     16.63175876	    -10.63098287	     45.00000000	    -12.34157105	     27.52843868	    -14.08310471	     -2.65155840	    -53.43373292	    122.19963684	    -31.38522740	   -142.26995275	      2.24789967	      0.47599124	     25.65755776	    -11.12987424	    -38.64475402	     -4.83715059	    -22.76383171	     13.27892180	     59.56067041	      3.52368172	     14.82666197	     12.36956206	     19.18417928	     15.23477627	     -5.59266723
      1.78000000	     -5.41945552	      4.42046680	      9.18641986	     -0.09632574	      1.02732819	      0.00115201	     16.69086016	    -10.54267589	     45.00000000	    -12.23264137	     27.38976879	    -14.16114504	     -2.55040130	    -53.58419059	    122.05272209	    -31.56109848	   -142.36449840	      2.29003812	      0.43349330	     25.60020777	    -11.06174101	    -38.55431055	     -4.92848626	    -22.83157384	     13.23994696	     59.49593077	      3.52543380	     14.83348870	     12.70633861	     19.10605226	     15.20861992	     -5.66268965
      1.79000000	     -5.35219674	      4.32587944	      9.32825434	     -0.09643543	      1.02666218	      0.00148947	     16.86743308	    -10.35973266	     45.00000000	    -11.97513285	     26.97989011	    -14.34459288	     -2.79191000	    -53.63432832	    121.97441324	    -32.24566194	   -142.83189058	      2.54943746	      0.49901019	     25.43839315	    -10.94237385	    -38.28848764	     -5.13071498	    -23.03362288	     13.09452405	     59.47859578	      3.17926957	     14.71723610	     13.44898503	     18.78568508	     15.18719893	     -5.88222329
      1.80000000	     -5.15941955	      4.38216331	      9.30650007	     -0.09680352	      1.02643958	      0.00150636	     16.88685452	    -10.30398525	     44.93038558	    -11.89216822	     26.83140257	    -14.36902478	     -2.65178341	    -53.83138002	    121.79398903	    -32.39598137	   -143.02055579	      2.61115768	      0.52027483	     25.36220327	    -10.90733501	    -38.16322851	     -5.19651683	    -23.10281140	     13.02502639	     59.37063951	      3.19370257	     14.63979334	     13.77041103	     18.66664195	     15.20323445	     -5.97540670
      1.81000000	     -5.02300875	      4.20590972	      9.42790327	     -0.09675776	      1.02606602	      0.00185129	     17.22036152	    -10.35293687	     45.00000000	    -11.76505543	     26.18332325	    -14.48906525	     -2.77109429	    -54.07676707	    121.68605485	    -33.39772109	   -145.92463510	      3.32553976	      1.33050909	     24.69107115	    -11.02742695	    -37.04433183	     -5.12486375	    -23.08957270	     12.30937150	     59.51954862	      2.42523511	     13.46282367	     14.46104000	     17.15537065	     15.37339925	     -6.41897722
      1.82000000	     -4.93294672	      4.16571664	      9.43869691	     -0.09697824	      1.02558170	      0.00198935	     17.16129910	    -10.25516875	     44.76201406	    -11.63134196	     25.96298260	    -14.46643166	     -2.97352107	    -54.27417922	    121.80005674	    -34.08390560	   -146.32206889	      3.53729012	      1.25301787	     24.48808904	    -10.91279327	    -36.71397467	     -5.28419345	    -23.20150358	     12.13164019	     59.50573670	      2.26492814	     13.62884307	     15.14848273	     16.86010516	     15.26845479	     -6.54633258
      1.83000000	     -4.78565387	      4.17544062	      9.46235649	     -0.09720103	      1.02515214	      0.00223329	     17.12965974	    -10.18618812	     44.44096829	    -11.47606879	     25.56153052	    -14.41168500	     -3.11778923	    -54.41960430	    121.71822672	    -34.94176611	   -146.83606166	      3.81562207	      1.26457128	     24.27508113	    -10.87160337	    -36.35760626	     -5.39590076	    -23.34308971	     11.91846657	     59.49638820	      2.07753647	     13.59494073	     15.88248469	     16.61071994	     15.17822554	     -6.72366048
      1.84000000	     -4.77614617	      4.13944036	      9.43527101	     -0.09717102	      1.02558166	      0.00225185	     17.06250729	    -10.78546910	     43.83781281	    -11.81341367	     24.88210337	    -13.87210580	     -3.02440276	    -54.78825797	    121.84511598	    -35.93753563	   -150.09319380	      4.31753600	      1.80866603	     23.51772774	    -11.07144064	    -35.08343100	     -5.25382646	    -23.32405238	     11.10667949	     59.90537519	      1.49436726	     12.41989452	     16.48008566	     15.71891033	     14.89536458	     -6.98399000
